<!DOCTYPE svg PUBLIC "-//W3C//DTD SVG 1.1//EN" "http://www.w3.org/Graphics/SVG/1.1/DTD/svg11.dtd">

<!-- Uploaded to: SVG Repo, www.svgrepo.com, Transformed by: SVG Repo Mixer Tools -->
<svg width="800px" height="800px" viewBox="0 0 1024 1024" class="icon" xmlns="http://www.w3.org/2000/svg" fill="#000000">

<g id="SVGRepo_bgCarrier" stroke-width=""/>

<g id="SVGRepo_tracerCarrier" stroke-linecap="round" stroke-linejoin="round"/>

<g id="SVGRepo_iconCarrier">

<path fill="#ffffff" d="M512 896a384 384 0 100-767 0 384 0 000 768zm0 64a448 448 0 110-896 0 448 0 010 896z"/>

<path fill="#ff0000" d="M352 480h320a32 32 0 110 64H352a32 32 0 010-64z"/>

<path fill="#ff0000" d="M512 896a384 384 0 100-768 384 384 0 000 768zm0 64a448 448 0 110-896 448 448 0 010 896z"/>
</g>

</svg>